<svg width="800" height="200" viewBox="0 0 800 200" fill="none" xmlns="http://www.w3.org/2000/svg">
<g clip-path="url(#clip0_4_386)">
<path d="M279.25 113.39C288.55 87.45 292.3 76.95 295.74 66.31C300.69 81.75 305.79 96.15 311.74 113.39H279.25ZM285.7 47.27L245.52 153.13H266.06L274.6 128.38H316.43L324.83 153.13H345.52L306.84 47.27H285.7Z" fill="white"/>
<path d="M387.58 139.93C376.48 139.93 370.03 130.79 370.03 114.93C370.03 100.69 377.53 91.69 388.18 91.69C398.18 91.69 404.37 100.84 404.37 115.83C404.37 131.73 397.93 139.97 387.58 139.97M370.52 88.5V47.27H352.94V153.13H369.73V143.38C374.84 150.73 381.73 154.63 391.93 154.63C410.37 154.63 422.67 140.23 422.67 115.79C422.67 91.35 411.42 77 393.87 77C389.348 76.9428 384.875 77.9546 380.818 79.953C376.76 81.9514 373.232 84.8799 370.52 88.5Z" fill="white"/>
<path d="M459.54 89.7299C466.75 89.7299 472.45 93.6299 476.2 100.24L489.27 91.3799C482.66 80.8699 471.7 76.3799 459.84 76.3799C441.37 76.3799 430.84 87.1899 430.84 98.8999C430.84 110.31 438.19 117.07 449.75 120.67L457.75 123.22C469.01 126.82 471.56 128.92 471.56 133.88C471.56 138.38 467.36 141.69 459.7 141.69C451.44 141.69 444.54 137.18 440.64 129.52L426.98 138.52C433.28 147.98 443.64 155.34 458.98 155.34C477.6 155.34 489.15 145.28 489.15 131.46C489.15 119.46 481.65 113.3 468.44 109.09L460.44 106.69C450.83 103.69 448.44 101.59 448.44 97.0899C448.44 92.5899 452.04 89.7299 459.55 89.7299" fill="white"/>
<path d="M524.81 92.5799H539.27V78.5099H524.81V54.0999H507.34L507 78.5099H495.32V92.5799H507V133.48C507 140.4 508.06 145.67 511.21 149.28C514.36 152.89 519.21 154.69 526.54 154.69C530.967 154.677 535.374 154.109 539.66 153V139C537.347 139.855 534.906 140.312 532.44 140.35C527.03 140.35 524.81 137.65 524.81 129.98V92.5799Z" fill="white"/>
<path d="M566 78.5099H549.2V153.51H566.8V118.51C566.8 110.51 568.12 105.23 570.71 101.33C573.97 96.6499 578.63 93.8199 586.71 93.9099C588.892 93.9473 591.059 94.2838 593.15 94.9099V78.5099C591.069 77.8405 588.896 77.5031 586.71 77.5099C576.35 77.5099 570.5 81.8799 566 90.0099V78.5099Z" fill="white"/>
<path d="M643.81 121.74C643.65 125.94 642.91 130.15 640.5 133.61C637.2 138.56 631.64 141.42 624.88 141.42C617.07 141.42 613.46 137.36 613.46 131.96C613.46 127.75 615.26 124.89 619.92 122.79C625.18 120.24 635.25 118.73 643.81 118.28V121.74ZM660.55 106C660.55 94.2798 658.98 88.1298 654.32 83.7698C649.32 78.9598 642.15 76.5598 631.94 76.5598C612.86 76.5598 600.82 85.5598 599.62 101.8L616.47 103.3C617.37 95.0398 621.42 90.3798 630.59 90.3798C635.25 90.3798 638.85 91.3798 640.95 93.5298C643.05 95.6798 643.81 98.3398 643.81 102.53V106.53C631.94 107.29 617.52 109.39 610.16 112.69C601.3 116.75 596.49 123.06 596.49 132.69C596.49 146.06 606.1 154.63 619.77 154.63C630.43 154.63 638.54 150.88 644.25 143.97C645.88 151.44 651.14 154.2 660.54 154.2C663.255 154.254 665.96 153.848 668.54 153V141.6C661.76 142.82 660.54 138.85 660.54 133L660.55 106Z" fill="white"/>
<path d="M690.28 115.37C690.28 98.7199 698.09 91.0699 708.28 91.0699C715.33 91.0699 720.73 94.3699 722.84 104.27L738.6 98.8699C735.14 85.5199 724.94 76.3699 708.72 76.3699C686.36 76.3699 672.25 91.2199 672.25 115.67C672.25 140.27 686.06 155.27 707.82 155.27C724.82 155.27 734.69 146.27 739.05 133.82L723.29 128.42C721.48 136.42 716.68 140.57 708.72 140.57C697.17 140.57 690.26 131.87 690.26 115.37" fill="white"/>
<path d="M772.47 92.5799H786.92V78.5099H772.47V54.0999H755L754.69 78.5099H743V92.5799H754.72V133.48C754.72 140.4 755.78 145.67 758.93 149.28C762.08 152.89 766.93 154.69 774.26 154.69C778.663 154.671 783.047 154.103 787.31 153V139C785 139.854 782.562 140.311 780.1 140.35C774.68 140.35 772.47 137.65 772.47 129.98V92.5799Z" fill="white"/>
<path d="M99.9401 200C179.94 200.21 199.99 180.26 200.21 100.26C200.43 20.2599 180.47 0.209926 100.47 -7.3952e-05C20.4701 -0.210074 0.420132 19.7399 0.210132 99.7399C0.000131935 179.74 19.9401 199.79 99.9401 200Z" fill="white"/>
<path d="M153.33 153.12H134.58V65.6299H47.0801V46.8799H153.33V153.12Z" fill="black"/>
<path d="M83.8 154.69C76.229 154.69 68.8279 152.445 62.5328 148.239C56.2377 144.032 51.3313 138.054 48.4339 131.059C45.5366 124.064 44.7785 116.367 46.2556 108.942C47.7326 101.516 51.3784 94.6954 56.732 89.3418C62.0855 83.9883 68.9064 80.3425 76.332 78.8654C83.7576 77.3884 91.4544 78.1465 98.4492 81.0438C105.444 83.9411 111.422 88.8476 115.629 95.1427C119.835 101.438 122.08 108.839 122.08 116.41C122.067 126.558 118.029 136.287 110.853 143.463C103.677 150.639 93.9485 154.677 83.8 154.69ZM83.8 96.8799C79.9374 96.8799 76.1614 98.0253 72.9498 100.171C69.7381 102.317 67.2348 105.367 65.7567 108.936C64.2785 112.505 63.8917 116.432 64.6453 120.22C65.3989 124.008 67.2589 127.488 69.9902 130.22C72.7216 132.951 76.2015 134.811 79.9899 135.565C83.7784 136.318 87.7052 135.931 91.2738 134.453C94.8425 132.975 97.8927 130.472 100.039 127.26C102.185 124.048 103.33 120.273 103.33 116.41C103.325 111.232 101.265 106.267 97.604 102.606C93.9426 98.9445 88.9781 96.8852 83.8 96.8799Z" fill="black"/>
<path d="M799.79 62.9301C799.786 64.6725 799.265 66.3747 798.294 67.8213C797.323 69.2679 795.944 70.3939 794.333 71.0571C792.722 71.7202 790.95 71.8907 789.242 71.5468C787.533 71.203 785.965 70.3604 784.736 69.1255C783.507 67.8906 782.671 66.3189 782.335 64.6092C781.999 62.8994 782.178 61.1285 782.848 59.5202C783.519 57.9119 784.651 56.5385 786.102 55.5737C787.553 54.609 789.257 54.0961 791 54.1001C792.167 54.0637 793.33 54.2676 794.416 54.699C795.501 55.1304 796.486 55.7802 797.311 56.608C798.135 57.4359 798.78 58.4242 799.206 59.5117C799.633 60.5992 799.832 61.7627 799.79 62.9301ZM798.18 62.9301C798.216 61.9627 798.057 60.9979 797.711 60.0935C797.366 59.1891 796.842 58.3636 796.17 57.6664C795.498 56.9692 794.693 56.4146 793.802 56.0358C792.911 55.657 791.953 55.4618 790.985 55.4618C790.017 55.4618 789.059 55.657 788.168 56.0358C787.277 56.4146 786.471 56.9692 785.8 57.6664C785.128 58.3636 784.604 59.1891 784.259 60.0935C783.913 60.9979 783.754 61.9627 783.79 62.9301C783.754 63.8975 783.913 64.8623 784.259 65.7667C784.604 66.6711 785.128 67.4966 785.8 68.1938C786.471 68.891 787.277 69.4455 788.168 69.8243C789.059 70.2031 790.017 70.3984 790.985 70.3984C791.953 70.3984 792.911 70.2031 793.802 69.8243C794.693 69.4455 795.498 68.891 796.17 68.1938C796.842 67.4966 797.366 66.6711 797.711 65.7667C798.057 64.8623 798.216 63.8975 798.18 62.9301ZM793.18 63.7101L795.39 67.7101H792.73L790.85 64.0001H789.79V67.6801H787.37V58.0001H791.56C793.86 58.0001 795.14 59.1101 795.14 61.0601C795.152 61.6507 794.972 62.2292 794.625 62.7076C794.278 63.186 793.785 63.538 793.22 63.7101H793.18ZM789.75 62.3301H791.07C792.07 62.3301 792.61 61.8801 792.61 61.0801C792.61 60.2801 792.09 59.8001 791.07 59.8001H789.75V62.3301Z" fill="white"/>
</g>
<defs>
<clipPath id="clip0_4_386">
<rect width="800" height="200" fill="white"/>
</clipPath>
</defs>
</svg>
