<svg id="Logos" xmlns="http://www.w3.org/2000/svg" viewBox="0 0 800 200"><defs><style>.cls-1{fill:#fff;}</style></defs><g id="Black_white_wordmark" data-name="Black+white wordmark"><path id="A" d="M279.25,113.39c9.3-25.94,13.05-36.44,16.49-47.08,4.95,15.44,10.05,29.84,16,47.08Zm6.45-66.12L245.52,153.13h20.54l8.54-24.75h41.83l8.4,24.75h20.69L306.84,47.27Z"/><path id="b" d="M387.58,139.93c-11.1,0-17.55-9.14-17.55-25,0-14.24,7.5-23.24,18.15-23.24,10,0,16.19,9.15,16.19,24.14,0,15.9-6.44,24.14-16.79,24.14M370.52,88.5V47.27H352.94V153.13h16.79v-9.75c5.11,7.35,12,11.25,22.2,11.25,18.44,0,30.74-14.4,30.74-38.84S411.42,77,393.87,77A28.72,28.72,0,0,0,370.52,88.5"/><path id="s" d="M459.54,89.73c7.21,0,12.91,3.9,16.66,10.51l13.07-8.86c-6.61-10.51-17.57-15-29.43-15-18.47,0-29,10.81-29,22.52,0,11.41,7.35,18.17,18.91,21.77l8,2.55c11.26,3.6,13.81,5.7,13.81,10.66,0,4.5-4.2,7.81-11.86,7.81-8.26,0-15.16-4.51-19.06-12.17l-13.66,9c6.3,9.46,16.66,16.82,32,16.82,18.62,0,30.17-10.06,30.17-23.88,0-12-7.5-18.16-20.71-22.37l-8-2.4c-9.61-3-12-5.1-12-9.6s3.6-7.36,11.11-7.36"/><path id="t" d="M524.81,92.58h14.46V78.51H524.81V54.1H507.34L507,78.51H495.32V92.58H507v40.9c0,6.92,1.06,12.19,4.21,15.8s8,5.41,15.33,5.41A53,53,0,0,0,539.66,153v-14a21.79,21.79,0,0,1-7.22,1.35c-5.41,0-7.63-2.7-7.63-10.37Z"/><path id="r" d="M566,78.51h-16.8v75H566.8v-35c0-8,1.32-13.28,3.91-17.18,3.26-4.68,7.92-7.51,16-7.42a23.88,23.88,0,0,1,6.44,1V78.51a20.82,20.82,0,0,0-6.44-1c-10.36,0-16.21,4.37-20.71,12.5Z"/><path id="a-2" data-name="a" d="M643.81,121.74c-.16,4.2-.9,8.41-3.31,11.87-3.3,4.95-8.86,7.81-15.62,7.81-7.81,0-11.42-4.06-11.42-9.46,0-4.21,1.8-7.07,6.46-9.17,5.26-2.55,15.33-4.06,23.89-4.51ZM660.55,106c0-11.72-1.57-17.87-6.23-22.23-5-4.81-12.17-7.21-22.38-7.21-19.08,0-31.12,9-32.32,25.24l16.85,1.5c.9-8.26,4.95-12.92,14.12-12.92,4.66,0,8.26,1,10.36,3.15s2.86,4.81,2.86,9v4c-11.87.76-26.29,2.86-33.65,6.16-8.86,4.06-13.67,10.37-13.67,20,0,13.37,9.61,21.94,23.28,21.94,10.66,0,18.77-3.75,24.48-10.66,1.63,7.47,6.89,10.23,16.29,10.23a24.07,24.07,0,0,0,8-1.2V141.6c-6.78,1.22-8-2.75-8-8.6Z"/><path id="c" d="M690.28,115.37c0-16.65,7.81-24.3,18-24.3,7.05,0,12.45,3.3,14.56,13.2l15.76-5.4c-3.46-13.35-13.66-22.5-29.88-22.5-22.36,0-36.47,14.85-36.47,39.3,0,24.6,13.81,39.6,35.57,39.6,17,0,26.87-9,31.23-21.45l-15.76-5.4c-1.81,8-6.61,12.15-14.57,12.15-11.55,0-18.46-8.7-18.46-25.2"/><path id="t-2" data-name="t" d="M772.47,92.58h14.45V78.51H772.47V54.1H755l-.31,24.41H743V92.58h11.72v40.9c0,6.92,1.06,12.19,4.21,15.8s8,5.41,15.33,5.41A53,53,0,0,0,787.31,153v-14a21.78,21.78,0,0,1-7.21,1.35c-5.42,0-7.63-2.7-7.63-10.37Z"/><path id="container" d="M99.94,200c80,.21,100.05-19.74,100.27-99.74S180.47.21,100.47,0,.42,19.74.21,99.74,19.94,199.79,99.94,200"/><polygon id="lines" class="cls-1" points="153.33 153.12 134.58 153.12 134.58 65.63 47.08 65.63 47.08 46.88 153.33 46.88 153.33 153.12"/><path id="circle" class="cls-1" d="M83.8,154.69a38.28,38.28,0,1,1,38.28-38.28A38.33,38.33,0,0,1,83.8,154.69m0-57.81a19.53,19.53,0,1,0,19.53,19.53A19.55,19.55,0,0,0,83.8,96.88"/></g><path d="M799.79,62.93A8.81,8.81,0,1,1,791,54.1,8.53,8.53,0,0,1,799.79,62.93Zm-1.61,0a7.2,7.2,0,1,0-14.39,0,7.2,7.2,0,1,0,14.39,0Zm-5,.78,2.21,4h-2.66L790.85,64h-1.06v3.68h-2.42V58h4.19c2.3,0,3.58,1.11,3.58,3.06A2.71,2.71,0,0,1,793.22,63.71Zm-3.43-1.38h1.32c1,0,1.54-.45,1.54-1.25s-.52-1.28-1.54-1.28h-1.32Z"/></svg>